<?xml version="1.0" encoding="UTF-8" standalone="no"?>
<!DOCTYPE svg PUBLIC "-//W3C//DTD SVG 1.1//EN"
 "http://www.w3.org/Graphics/SVG/1.1/DTD/svg11.dtd">
<!-- Generated by graphviz version 2.43.0 (0)
 -->
<!-- Title: finite_state_machine Pages: 1 -->
<svg width="438pt" height="495pt"
 viewBox="0.00 0.00 450.09 509.37" xmlns="http://www.w3.org/2000/svg" xmlns:xlink="http://www.w3.org/1999/xlink">
<g id="graph0" class="graph" transform="scale(1.03 1.03) rotate(0) translate(4 505.37)">
<title>finite_state_machine</title>
<polygon fill="white" stroke="transparent" points="-4,4 -4,-505.37 446.09,-505.37 446.09,4 -4,4"/>
<!-- COORD -->
<g id="node1" class="node">
<title>COORD</title>
<ellipse fill="none" stroke="black" cx="157.05" cy="-231.03" rx="46.29" ry="46.29"/>
<text text-anchor="middle" x="157.05" y="-227.33" font-family="Times,serif" font-size="14.00">COORD</text>
</g>
<!-- government -->
<g id="node4" class="node">
<title>government</title>
<ellipse fill="none" stroke="black" cx="185.05" cy="-66.94" rx="66.89" ry="66.89"/>
<text text-anchor="middle" x="185.05" y="-63.24" font-family="Times,serif" font-size="14.00">government</text>
</g>
<!-- COORD&#45;&gt;government -->
<g id="edge1" class="edge">
<title>COORD&#45;&gt;government</title>
<path fill="none" stroke="black" d="M164.77,-185.31C167.03,-172.22 169.57,-157.53 172.07,-143.09"/>
<polygon fill="black" stroke="black" points="175.53,-143.6 173.78,-133.15 168.63,-142.41 175.53,-143.6"/>
<text text-anchor="middle" x="176.05" y="-155.69" font-family="Times,serif" font-size="14.00">0</text>
</g>
<!-- industry -->
<g id="node6" class="node">
<title>industry</title>
<ellipse fill="none" stroke="black" cx="50.05" cy="-66.94" rx="50.09" ry="50.09"/>
<text text-anchor="middle" x="50.05" y="-63.24" font-family="Times,serif" font-size="14.00">industry</text>
</g>
<!-- COORD&#45;&gt;industry -->
<g id="edge2" class="edge">
<title>COORD&#45;&gt;industry</title>
<path fill="none" stroke="black" d="M131.96,-192.03C117.33,-169.86 98.7,-141.64 82.9,-117.72"/>
<polygon fill="black" stroke="black" points="85.65,-115.53 77.22,-109.12 79.81,-119.39 85.65,-115.53"/>
<text text-anchor="middle" x="119.05" y="-155.69" font-family="Times,serif" font-size="14.00">0</text>
</g>
<!-- YYY -->
<g id="node2" class="node">
<title>YYY</title>
<ellipse fill="none" stroke="black" cx="362.05" cy="-360.68" rx="28.7" ry="28.7"/>
<text text-anchor="middle" x="362.05" y="-356.98" font-family="Times,serif" font-size="14.00">YYY</text>
</g>
<!-- around -->
<g id="node3" class="node">
<title>around</title>
<ellipse fill="none" stroke="black" cx="322.05" cy="-231.03" rx="43.59" ry="43.59"/>
<text text-anchor="middle" x="322.05" y="-227.33" font-family="Times,serif" font-size="14.00">around</text>
</g>
<!-- nation -->
<g id="node8" class="node">
<title>nation</title>
<ellipse fill="none" stroke="black" cx="310.05" cy="-66.94" rx="40.09" ry="40.09"/>
<text text-anchor="middle" x="310.05" y="-63.24" font-family="Times,serif" font-size="14.00">nation</text>
</g>
<!-- around&#45;&gt;nation -->
<g id="edge3" class="edge">
<title>around&#45;&gt;nation</title>
<path fill="none" stroke="black" d="M318.89,-187.45C317.3,-165.89 315.35,-139.61 313.69,-117.19"/>
<polygon fill="black" stroke="black" points="317.18,-116.91 312.95,-107.19 310.2,-117.42 317.18,-116.91"/>
<text text-anchor="middle" x="323.05" y="-155.69" font-family="Times,serif" font-size="14.00">1</text>
</g>
<!-- world -->
<g id="node10" class="node">
<title>world</title>
<ellipse fill="none" stroke="black" cx="405.05" cy="-66.94" rx="37.09" ry="37.09"/>
<text text-anchor="middle" x="405.05" y="-63.24" font-family="Times,serif" font-size="14.00">world</text>
</g>
<!-- around&#45;&gt;world -->
<g id="edge4" class="edge">
<title>around&#45;&gt;world</title>
<path fill="none" stroke="black" d="M341.51,-192.03C354.22,-167.2 370.83,-134.77 383.88,-109.29"/>
<polygon fill="black" stroke="black" points="387.06,-110.74 388.51,-100.24 380.83,-107.55 387.06,-110.74"/>
<text text-anchor="middle" x="366.05" y="-155.69" font-family="Times,serif" font-size="14.00">2</text>
</g>
<!-- in -->
<g id="node5" class="node">
<title>in</title>
<ellipse fill="none" stroke="black" cx="241.05" cy="-231.03" rx="19.5" ry="19.5"/>
<text text-anchor="middle" x="241.05" y="-227.33" font-family="Times,serif" font-size="14.00">in</text>
</g>
<!-- in&#45;&gt;government -->
<g id="edge5" class="edge">
<title>in&#45;&gt;government</title>
<path fill="none" stroke="black" d="M234.95,-212.38C228.91,-194.91 219.27,-167.01 210.06,-140.36"/>
<polygon fill="black" stroke="black" points="213.27,-138.93 206.7,-130.62 206.66,-141.21 213.27,-138.93"/>
<text text-anchor="middle" x="224.05" y="-155.69" font-family="Times,serif" font-size="14.00">1</text>
</g>
<!-- in&#45;&gt;nation -->
<g id="edge6" class="edge">
<title>in&#45;&gt;nation</title>
<path fill="none" stroke="black" d="M248.43,-212.69C258.4,-189.27 276.52,-146.7 290.54,-113.76"/>
<polygon fill="black" stroke="black" points="293.87,-114.89 294.56,-104.31 287.43,-112.14 293.87,-114.89"/>
<text text-anchor="middle" x="279.05" y="-155.69" font-family="Times,serif" font-size="14.00">2</text>
</g>
<!-- into -->
<g id="node7" class="node">
<title>into</title>
<ellipse fill="none" stroke="black" cx="322.05" cy="-472.77" rx="28.7" ry="28.7"/>
<text text-anchor="middle" x="322.05" y="-469.07" font-family="Times,serif" font-size="14.00">into</text>
</g>
<!-- into&#45;&gt;YYY -->
<g id="edge7" class="edge">
<title>into&#45;&gt;YYY</title>
<path fill="none" stroke="black" d="M331.53,-445.68C336.77,-431.25 343.36,-413.11 349.07,-397.39"/>
<polygon fill="black" stroke="black" points="352.37,-398.56 352.5,-387.96 345.79,-396.17 352.37,-398.56"/>
<text text-anchor="middle" x="348.05" y="-414.97" font-family="Times,serif" font-size="14.00">2</text>
</g>
<!-- pour -->
<g id="node9" class="node">
<title>pour</title>
<ellipse fill="none" stroke="black" cx="283.05" cy="-360.68" rx="32.49" ry="32.49"/>
<text text-anchor="middle" x="283.05" y="-356.98" font-family="Times,serif" font-size="14.00">pour</text>
</g>
<!-- into&#45;&gt;pour -->
<g id="edge8" class="edge">
<title>into&#45;&gt;pour</title>
<path fill="none" stroke="black" d="M312.8,-445.68C308.07,-432.33 302.22,-415.8 296.95,-400.94"/>
<polygon fill="black" stroke="black" points="300.24,-399.73 293.6,-391.47 293.64,-402.06 300.24,-399.73"/>
<text text-anchor="middle" x="310.05" y="-414.97" font-family="Times,serif" font-size="14.00">1</text>
</g>
<!-- pour&#45;&gt;COORD -->
<g id="edge9" class="edge">
<title>pour&#45;&gt;COORD</title>
<path fill="none" stroke="black" d="M260.52,-336.86C242.79,-318.9 217.64,-293.42 196.58,-272.08"/>
<polygon fill="black" stroke="black" points="198.84,-269.39 189.32,-264.73 193.85,-274.3 198.84,-269.39"/>
<text text-anchor="middle" x="237.05" y="-298.98" font-family="Times,serif" font-size="14.00">1</text>
</g>
<!-- xxx -->
<g id="node11" class="node">
<title>xxx</title>
<ellipse fill="none" stroke="black" cx="410.05" cy="-231.03" rx="26.8" ry="26.8"/>
<text text-anchor="middle" x="410.05" y="-227.33" font-family="Times,serif" font-size="14.00">xxx</text>
</g>
<!-- pour&#45;&gt;xxx -->
<g id="edge10" class="edge">
<title>pour&#45;&gt;xxx</title>
<path fill="none" stroke="black" d="M307.98,-339.44C327.15,-323.39 353.85,-299.95 375.05,-277.18 379.57,-272.32 384.12,-266.92 388.37,-261.58"/>
<polygon fill="black" stroke="black" points="391.4,-263.4 394.77,-253.35 385.87,-259.1 391.4,-263.4"/>
<text text-anchor="middle" x="361.05" y="-298.98" font-family="Times,serif" font-size="14.00">2</text>
</g>
</g>
</svg>
